<svg xmlns:xlink="http://www.w3.org/1999/xlink" xmlns="http://www.w3.org/2000/svg" width="48.054" height="46.837" viewBox="0 0 48.054 46.837">
  
  <g id="cancel" transform="translate(-860.852 -615.666)">
    <path id="Path_37" data-name="Path 37" class="section-icon" d="M892.854,631.111a1.5,1.5,0,0,0-2.122,0l-5.853,5.853-5.853-5.853a1.5,1.5,0,0,0-2.121,2.121l5.853,5.853-5.853,5.853a1.5,1.5,0,0,0,2.121,2.122l5.853-5.853,5.853,5.853a1.5,1.5,0,0,0,2.122-2.122L887,639.085l5.854-5.853A1.5,1.5,0,0,0,892.854,631.111Z"/>
    <path id="Path_38" data-name="Path 38" class="section-icon2" d="M908.4,628.852c-.6-4.551-2.205-7.761-4.78-9.541-3.185-2.2-6.875-2.647-10.13-3.041l-.657-.08a63.378,63.378,0,0,0-20.284.655,21.047,21.047,0,0,0-4.642,1.359,10.247,10.247,0,0,0-4.46,3.633c-1.676,2.521-2.034,5.77-2.238,8.617-.214,2.989-.421,6.538-.338,10.2.031,1.37.074,2.965.182,4.551.208,3.057.666,6.981,2.374,10.228,2.347,4.462,6.294,5.518,9.057,5.924a85.32,85.32,0,0,0,11.971,1.144h.262a66.558,66.558,0,0,0,12-1.226c3.147-.57,6.372-1.442,8.641-3.942,2.446-2.693,2.9-6.648,3.163-10.469A91.873,91.873,0,0,0,908.4,628.852Zm-2.876,17.811c-.223,3.293-.592,6.675-2.391,8.655-1.751,1.93-4.508,2.565-6.955,3.008a64.576,64.576,0,0,1-11.707,1.176,82.652,82.652,0,0,1-11.55-1.112c-3.456-.508-5.5-1.81-6.838-4.353-1.447-2.749-1.849-6.272-2.037-9.034-.1-1.524-.145-3.079-.176-4.416-.08-3.538.122-7,.331-9.918.177-2.466.472-5.257,1.744-7.17a7.21,7.21,0,0,1,3.189-2.557,18.285,18.285,0,0,1,3.977-1.15,61.744,61.744,0,0,1,11.631-1.125,60.418,60.418,0,0,1,7.716.5l.671.082c3.053.369,6.21.751,8.786,2.53,1.847,1.279,3.028,3.789,3.51,7.464A89.165,89.165,0,0,1,905.524,646.663Z"/>
  </g>
</svg>