<svg xmlns:xlink="http://www.w3.org/1999/xlink" xmlns="http://www.w3.org/2000/svg" width="47.78" height="50.218" viewBox="0 0 47.78 50.218">
  
  <g id="attach-v1" transform="translate(-276.075 -536.008)">
    <path id="Path_5" data-name="Path 5" class="section-icon2" d="M290.677,586.226A14.6,14.6,0,0,1,280.353,561.3l23.591-21.905a11.687,11.687,0,0,1,16.493.039,11.7,11.7,0,0,1,0,16.532L299.714,575a8.778,8.778,0,0,1-12.369-12.459l.081-.076,11.536-9.941a1.5,1.5,0,0,1,1.959,2.273l-11.492,9.9a5.779,5.779,0,0,0,8.21,8.135L318.361,553.8a8.691,8.691,0,0,0-12.336-12.246l-23.591,21.9a11.6,11.6,0,0,0,16.447,16.369l21.159-19.806a1.5,1.5,0,0,1,2.051,2.19l-21.124,19.772A14.474,14.474,0,0,1,290.677,586.226Z"/>
  </g>
</svg>